# xmcd
# 
# Track frame offsets:
#     150
#     15747
#     27560
#     39452
#     52017
#     65265
#     78797
#     92050
#     102207
#     114352
#     125295
#     137787
#     149495
#     175170
# 
# Disc length: 2655
# 
# Revision: 1
# Processed by: cddbd v1.5.2PL0 Copyright (c) Steve Scherf et al.
# Submitted via: fre:ac v1.0.31
# 
DISCID=b90a5d0e
DTITLE=Roots of Rhythm - Sweet Home Chicago
DYEAR=2000
DGENRE=R&B
TTITLE0=Johnny Shines/Sweet Home Chicago
TTITLE1=Little Walter/My Babe
TTITLE2=Tyrone Davis/Turn Back the Hands of Time
TTITLE3=The Impressions/It's All Right
TTITLE4=Barbara Acklin/Love Makes a Woman
TTITLE5=Nellie Lutcher/Chi-Chi-Chi-Chicago
TTITLE6=Big Maceo/Chicago Breakdown
TTITLE7=Jumpin' Joe Williams w/ Red Saunders/Chi (Chicago)
TTITLE8=Billy Boy Arnold/I Wish You Would
TTITLE9=Howlin' Wolf/The Red Rooster
TTITLE10=Jimmy Reed/Bright Lights, Big City
TTITLE11=Jerry Butler/Only the Strong Survive
TTITLE12=Muddy Waters/Mean Disposition
TTITLE13=James Cotton/Blues in my Sleep
EXTD=
EXTT0=
EXTT1=
EXTT2=
EXTT3=
EXTT4=
EXTT5=
EXTT6=
EXTT7=
EXTT8=
EXTT9=
EXTT10=
EXTT11=
EXTT12=
EXTT13=
PLAYORDER=
